<svg width="114" height="39" viewBox="0 0 114 39" fill="none" xmlns="http://www.w3.org/2000/svg">
<path fill-rule="evenodd" clip-rule="evenodd" d="M16.4136 1.00386C15.0956 0.360152 13.6214 0 12.0654 0C10.4324 0 8.88935 0.396745 7.52246 1.10167V14.3625H16.4136V1.00386Z" fill="#EF476F"/>
<path fill-rule="evenodd" clip-rule="evenodd" d="M23.5033 14.3625C23.5505 14.1894 23.5941 14.0145 23.634 13.8378L23.639 13.8262H23.6366C23.8331 12.951 23.9376 12.0334 23.9376 11.0879C23.9376 7.0287 22.0117 3.48525 19.1504 1.59326V14.3625H23.5033Z" fill="#FFD166"/>
<path fill-rule="evenodd" clip-rule="evenodd" d="M4.78732 25.6936V17.0984H0.793945C1.15118 18.1469 1.64765 19.1174 2.25779 19.981L4.78732 25.6936Z" fill="#E08746"/>
<path fill-rule="evenodd" clip-rule="evenodd" d="M23.1939 17.0984H19.1494V26.3394L21.6768 20.2973C22.3146 19.3417 22.8298 18.2641 23.1939 17.0984Z" fill="#5A3FC5"/>
<path fill-rule="evenodd" clip-rule="evenodd" d="M4.78745 2.15259C1.89848 4.10012 0 7.39178 0 11.1245C0 12.0594 0.119108 12.9667 0.343056 13.8321H0.340501L0.345778 13.8426C0.391246 14.0176 0.441002 14.1908 0.494926 14.3623H4.78745V2.15259Z" fill="#118AB2"/>
<path fill-rule="evenodd" clip-rule="evenodd" d="M16.4136 28.0101V17.0984H7.52246V27.5568L12.0652 38.1509L16.4136 28.0101Z" fill="#48CA5D"/>
<path d="M33.746 26V13.418H35.87V18.872H42.116V13.418H44.24V26H42.116V20.852H35.87V26H33.746ZM55.2082 26H53.3722V24.722C52.5802 25.67 51.5182 26.144 50.1862 26.144C49.1902 26.144 48.3622 25.862 47.7022 25.298C47.0542 24.734 46.7302 23.984 46.7302 23.048C46.7302 22.1 47.0782 21.392 47.7742 20.924C48.4702 20.456 49.4122 20.222 50.6002 20.222H53.2102V19.862C53.2102 18.59 52.5022 17.954 51.0862 17.954C50.1982 17.954 49.2742 18.278 48.3142 18.926L47.4142 17.666C48.5782 16.742 49.8982 16.28 51.3742 16.28C52.5022 16.28 53.4202 16.568 54.1282 17.144C54.8482 17.708 55.2082 18.602 55.2082 19.826V26ZM53.1922 22.436V21.626H50.9242C49.4722 21.626 48.7462 22.082 48.7462 22.994C48.7462 23.462 48.9262 23.822 49.2862 24.074C49.6462 24.314 50.1442 24.434 50.7802 24.434C51.4282 24.434 51.9922 24.254 52.4722 23.894C52.9522 23.534 53.1922 23.048 53.1922 22.436ZM63.1446 16.28C64.4286 16.28 65.5266 16.724 66.4386 17.612C67.3506 18.5 67.8066 19.682 67.8066 21.158C67.8066 22.634 67.3506 23.834 66.4386 24.758C65.5386 25.682 64.4826 26.144 63.2706 26.144C62.0706 26.144 60.9906 25.616 60.0306 24.56V29.492H58.0146V16.424H60.0306V18.098C60.8226 16.886 61.8606 16.28 63.1446 16.28ZM59.9946 21.23C59.9946 22.142 60.2706 22.892 60.8226 23.48C61.3746 24.056 62.0466 24.344 62.8386 24.344C63.6306 24.344 64.3206 24.056 64.9086 23.48C65.4966 22.904 65.7906 22.16 65.7906 21.248C65.7906 20.324 65.5026 19.562 64.9266 18.962C64.3506 18.35 63.6606 18.044 62.8566 18.044C62.0526 18.044 61.3746 18.35 60.8226 18.962C60.2706 19.562 59.9946 20.318 59.9946 21.23ZM72.5204 26H70.3964V13.418H73.7084L77.5064 21.32L81.3044 13.418H84.5984V26H82.4744V16.172L78.0824 24.902H76.8944L72.5204 16.172V26ZM95.5676 26H93.7316V24.722C92.9396 25.67 91.8776 26.144 90.5456 26.144C89.5496 26.144 88.7216 25.862 88.0616 25.298C87.4136 24.734 87.0896 23.984 87.0896 23.048C87.0896 22.1 87.4376 21.392 88.1336 20.924C88.8296 20.456 89.7716 20.222 90.9596 20.222H93.5696V19.862C93.5696 18.59 92.8616 17.954 91.4456 17.954C90.5576 17.954 89.6336 18.278 88.6736 18.926L87.7736 17.666C88.9376 16.742 90.2576 16.28 91.7336 16.28C92.8616 16.28 93.7796 16.568 94.4876 17.144C95.2076 17.708 95.5676 18.602 95.5676 19.826V26ZM93.5516 22.436V21.626H91.2836C89.8316 21.626 89.1056 22.082 89.1056 22.994C89.1056 23.462 89.2856 23.822 89.6456 24.074C90.0056 24.314 90.5036 24.434 91.1396 24.434C91.7876 24.434 92.3516 24.254 92.8316 23.894C93.3116 23.534 93.5516 23.048 93.5516 22.436ZM103.504 16.28C104.788 16.28 105.886 16.724 106.798 17.612C107.71 18.5 108.166 19.682 108.166 21.158C108.166 22.634 107.71 23.834 106.798 24.758C105.898 25.682 104.842 26.144 103.63 26.144C102.43 26.144 101.35 25.616 100.39 24.56V29.492H98.374V16.424H100.39V18.098C101.182 16.886 102.22 16.28 103.504 16.28ZM100.354 21.23C100.354 22.142 100.63 22.892 101.182 23.48C101.734 24.056 102.406 24.344 103.198 24.344C103.99 24.344 104.68 24.056 105.268 23.48C105.856 22.904 106.15 22.16 106.15 21.248C106.15 20.324 105.862 19.562 105.286 18.962C104.71 18.35 104.02 18.044 103.216 18.044C102.412 18.044 101.734 18.35 101.182 18.962C100.63 19.562 100.354 20.318 100.354 21.23Z" fill="#073B4C"/>
</svg>
